<svg version="1.1" id="Layer_1" xmlns="http://www.w3.org/2000/svg" xmlns:xlink="http://www.w3.org/1999/xlink" x="0px" y="0px"
	 width="100%" viewBox="0 0 812 307" enable-background="new 0 0 812 307" xml:space="preserve">
<path fill="#0A0A0A" opacity="1.000000" stroke="none" 
	d="
M625.000000,308.000000 
	C416.666656,308.000000 208.833328,308.000000 1.000000,308.000000 
	C1.000000,205.666672 1.000000,103.333336 1.000000,1.000000 
	C271.666656,1.000000 542.333313,1.000000 813.000000,1.000000 
	C813.000000,103.333336 813.000000,205.666672 813.000000,308.000000 
	C750.500000,308.000000 688.000000,308.000000 625.000000,308.000000 
M121.360779,207.899658 
	C126.525063,207.892960 131.746918,207.405411 136.837448,208.014816 
	C141.928986,208.624359 144.371124,205.998489 146.735352,202.344711 
	C152.323334,193.708862 158.008606,185.135315 163.723404,176.582565 
	C165.609100,173.760468 167.804428,171.144989 169.684540,168.319504 
	C173.085709,163.208099 176.198334,157.898529 179.731598,152.883148 
	C182.552017,148.879623 182.200943,147.114166 177.246857,146.089462 
	C174.459976,145.513031 171.493210,145.734665 168.606979,145.723145 
	C159.469620,145.686646 150.332016,145.709656 140.880844,145.709656 
	C140.880844,141.258118 140.816620,137.600433 140.919800,133.947495 
	C140.950943,132.844498 141.398651,131.739471 141.739975,130.662125 
	C142.325089,128.815323 143.377182,127.022034 143.528824,125.149231 
	C144.092484,118.188789 146.827011,112.692848 152.880142,108.855644 
	C159.691437,104.537811 166.394104,101.624634 175.039734,103.410301 
	C181.126724,104.667511 185.656601,107.547394 186.103317,113.595169 
	C186.413223,117.790543 187.039032,121.963097 187.545914,126.143158 
	C187.762283,127.927505 188.003021,129.710175 188.288589,131.484589 
	C189.095963,136.501282 190.872467,141.583420 190.505341,146.508438 
	C190.099457,151.952927 190.582611,157.423859 188.296524,163.092636 
	C186.481033,167.594498 189.215164,173.816223 189.484268,179.296204 
	C190.159393,193.043686 190.836151,206.800400 191.007736,220.559708 
	C191.105652,228.410980 190.478607,236.196732 191.956207,244.061508 
	C192.998901,249.611481 193.224533,255.500977 192.645767,261.118439 
	C192.039551,267.002625 193.606750,269.917236 199.526657,269.792267 
	C205.311890,269.670135 211.086594,268.979736 216.870895,268.900208 
	C227.550262,268.753357 238.233368,268.850555 248.914688,268.897217 
	C250.811920,268.905518 252.708084,269.161713 254.972305,269.330933 
	C256.086945,265.029663 258.130219,260.606049 258.199615,256.151672 
	C258.341095,247.070450 257.353241,237.975220 256.997131,228.879242 
	C256.934937,227.290298 257.969971,225.676529 258.010284,224.062057 
	C258.133240,219.137970 257.827423,214.196518 258.121613,209.287796 
	C258.200653,207.969025 259.776031,205.686813 260.745361,205.643173 
	C267.747162,205.327927 274.769714,205.474106 282.462585,205.474106 
	C282.462585,225.822922 282.462585,246.229431 282.462585,267.979797 
	C291.038330,268.037292 298.977814,268.185883 306.915436,268.118439 
	C315.826782,268.042755 324.735870,267.734161 333.647064,267.603119 
	C337.635223,267.544434 341.783051,268.353943 345.563080,267.484924 
	C348.287781,266.858459 351.843964,264.573853 352.680023,262.201050 
	C354.052734,258.305237 353.502441,253.736618 353.795166,249.453903 
	C354.030121,246.016235 354.393372,242.585678 354.556915,239.145172 
	C354.867889,232.603821 355.381775,226.051498 355.250244,219.514999 
	C355.088348,211.468872 354.113647,203.439545 353.937012,195.393143 
	C353.779297,188.208862 354.398071,181.010529 354.368774,173.819641 
	C354.331635,164.702774 353.966827,155.587524 353.788300,146.470718 
	C353.749512,144.489792 354.056549,142.495026 353.928558,140.524551 
	C353.737427,137.582092 353.139465,134.662720 353.008972,131.720459 
	C352.825897,127.591896 353.032532,123.446129 352.851807,119.317383 
	C352.661743,114.974922 352.040070,110.648697 351.917389,106.306602 
	C351.754272,100.533234 351.758179,94.747238 351.936951,88.974312 
	C352.116882,83.164421 352.641754,77.366051 352.935944,71.558609 
	C353.201233,66.321274 353.817596,61.041294 353.396759,55.851677 
	C353.132996,52.599285 351.615204,49.504852 346.964020,49.467129 
	C342.146332,49.428043 337.309326,48.611938 332.529175,47.837223 
	C325.285278,46.663219 318.100861,46.118275 310.922363,48.180965 
	C309.831146,48.494522 308.269806,49.143837 307.612610,48.675083 
	C303.427307,45.689911 299.803711,48.754128 296.071442,49.604774 
	C292.428864,50.434994 287.439545,50.887779 285.708618,53.367813 
	C282.566040,57.870361 278.725891,62.841511 280.091034,69.301735 
	C280.661163,71.999680 281.083466,74.781715 281.115814,77.530891 
	C281.229492,87.192825 281.015167,96.859268 281.177399,106.519768 
	C281.299652,113.800201 281.903015,121.071411 282.112823,128.351898 
	C282.270691,133.828644 282.144073,139.313583 282.144073,144.039276 
	C273.750397,144.039276 266.106415,144.160294 258.474152,143.916199 
	C257.249664,143.877045 255.354141,142.412888 255.021881,141.249588 
	C254.161331,138.236633 253.829575,135.036850 253.590149,131.888596 
	C252.670547,119.796608 251.971100,107.687286 250.983078,95.601311 
	C250.478226,89.425629 250.382416,83.024681 248.584610,77.193275 
	C246.131927,69.237740 242.950058,61.681847 233.918808,57.827576 
	C225.335327,54.164406 217.789108,48.388893 207.730057,48.389523 
	C200.763107,48.389957 193.797134,47.039639 186.826141,46.338188 
	C186.465958,46.301945 186.080826,46.798008 185.676727,46.866928 
	C183.317184,47.269325 180.957352,47.844975 178.581070,47.937756 
	C173.684250,48.128963 168.761124,47.817524 163.878082,48.146847 
	C157.957230,48.546162 152.029831,50.163635 146.170685,49.883934 
	C134.670181,49.334934 125.243813,54.710857 116.092072,60.033718 
	C109.778542,63.705818 103.978722,68.945038 101.012001,76.263863 
	C100.891273,76.561714 100.712837,76.927017 100.455940,77.065575 
	C93.242599,80.956192 92.832222,88.802544 91.381668,95.170296 
	C88.967842,105.766701 88.519714,116.820724 87.398712,127.698006 
	C86.747444,134.017426 86.398308,140.367981 85.888878,147.022415 
	C79.697365,147.022415 73.138817,148.067673 67.104477,146.736557 
	C60.717400,145.327637 55.488323,147.592178 49.902332,149.114090 
	C49.040310,149.348953 47.818390,151.842865 48.161152,152.353561 
	C50.912231,156.452438 54.009415,160.318192 56.981430,164.269775 
	C64.568787,174.357925 72.160904,184.442535 79.720093,194.551758 
	C82.669205,198.495758 85.485535,202.540054 88.485847,206.443756 
	C89.013000,207.129623 90.134117,207.675415 91.012146,207.724182 
	C97.047813,208.059570 103.090225,208.351608 109.133652,208.440445 
	C112.855309,208.495148 116.582611,208.166168 121.360779,207.899658 
M371.061035,238.193298 
	C371.061035,246.335083 371.061035,254.476868 371.061035,262.875885 
	C374.118439,263.028900 377.738098,263.301910 381.361755,263.373962 
	C391.758728,263.580719 402.157471,263.695007 412.555145,263.869629 
	C416.138123,263.929840 421.897278,260.410767 422.081848,257.250946 
	C422.268463,254.056870 421.065918,250.808167 420.873932,247.559631 
	C420.526337,241.677582 419.189972,235.444778 420.607849,229.964188 
	C422.695984,221.893143 419.588531,213.923279 421.925873,205.953873 
	C424.102020,198.534225 420.121429,190.283859 424.511902,182.896057 
	C425.755341,180.803711 426.107574,178.184265 426.885132,175.811996 
	C428.410736,171.157608 429.647369,166.377518 431.577789,161.896835 
	C433.061554,158.452759 437.271820,157.707611 438.752380,160.420685 
	C441.357971,165.195312 443.851685,170.129105 445.550537,175.274185 
	C447.424316,180.948975 448.704010,186.883133 449.599915,192.801590 
	C450.711426,200.144455 451.353271,207.574707 451.838348,214.990753 
	C452.202179,220.552399 452.224335,226.160736 451.989410,231.731033 
	C451.694427,238.725952 453.646576,245.792679 451.065033,252.739899 
	C450.003906,255.595673 454.361847,262.348480 457.418213,262.689728 
	C460.524750,263.036591 463.700256,262.852448 466.842499,262.775696 
	C474.589783,262.586456 482.334198,262.245819 490.082184,262.134216 
	C493.008179,262.092072 496.039856,263.038574 498.831177,262.513275 
	C500.359924,262.225616 502.538391,259.864563 502.619781,258.341980 
	C503.032135,250.627396 502.870728,242.881226 502.876801,235.146088 
	C502.885071,224.565475 502.858093,213.984848 502.855438,203.404221 
	C502.853058,193.825897 503.116333,184.238983 502.792358,174.671783 
	C502.500580,166.056961 501.480011,157.469269 500.957031,148.858917 
	C500.644958,143.721054 500.764221,138.558197 500.519287,133.414688 
	C500.304779,128.910309 500.164551,124.365250 499.425537,119.932510 
	C498.523560,114.522331 496.737030,109.256569 495.890625,103.841209 
	C495.270050,99.870483 495.790070,95.734001 495.369293,91.716682 
	C494.703583,85.361000 493.969147,78.982925 492.684662,72.733368 
	C491.980011,69.304878 490.889526,65.342773 488.584595,62.969875 
	C481.388885,55.561832 471.009125,54.153393 461.925751,50.317390 
	C457.987640,48.654274 453.011841,49.402008 449.519653,48.219833 
	C441.397949,45.470490 433.646393,46.785622 425.912445,47.611076 
	C419.411774,48.304905 413.144592,51.082424 406.741608,52.817867 
	C394.913544,56.023720 386.800049,63.257141 382.785706,74.870674 
	C380.457092,81.607307 377.845520,88.310654 376.315002,95.239639 
	C374.916870,101.569145 374.701935,108.173805 374.152679,114.673012 
	C373.640564,120.732643 373.424561,126.816681 372.987061,132.883408 
	C372.507355,139.535736 371.613007,146.174072 371.473816,152.830505 
	C371.340088,159.225113 371.847443,165.640961 372.245453,172.036743 
	C372.667603,178.820557 370.922882,185.589767 372.880859,192.449493 
	C373.844177,195.824539 373.240295,199.742310 372.899017,203.372513 
	C372.354645,209.163757 371.111633,214.900879 370.772369,220.696503 
	C370.451385,226.178741 370.913879,231.706848 371.061035,238.193298 
M732.782532,47.016624 
	C731.443970,47.321621 729.727417,47.201618 728.828613,48.001060 
	C723.264343,52.950165 717.869202,58.090389 712.446533,63.197449 
	C706.857544,68.461105 701.242615,73.699806 695.770203,79.082710 
	C694.330261,80.499092 693.375000,82.408264 691.666992,84.848732 
	C690.624756,82.194328 689.395508,80.431953 689.315369,78.618797 
	C688.996704,71.407776 688.912781,64.179779 688.979614,56.960262 
	C689.041992,50.223236 683.720215,45.834248 677.215881,47.524529 
	C675.940125,47.856068 674.677185,48.468277 673.395142,48.506226 
	C664.776428,48.761318 656.152344,48.835896 647.534302,49.106682 
	C644.914001,49.189018 642.283569,50.100517 639.699158,49.944847 
	C633.289062,49.558746 631.970276,51.390961 633.655884,57.941154 
	C634.464661,61.084328 634.501038,64.478333 634.522156,67.761086 
	C634.563965,74.247070 633.321716,80.926140 634.483643,87.177193 
	C636.266418,96.769028 633.400940,106.292877 635.631775,115.914589 
	C637.261292,122.942886 636.642029,130.497726 636.974792,137.820145 
	C637.347107,146.011841 637.864075,154.204300 637.937683,162.399857 
	C637.994202,168.705200 637.489319,175.017181 637.183167,181.323730 
	C636.892029,187.318619 636.472412,193.307739 636.225891,199.304199 
	C636.013367,204.472656 635.915588,209.647293 635.856750,214.820221 
	C635.786682,220.985352 635.774780,227.151764 635.808411,233.317261 
	C635.833679,237.961380 635.994141,242.604614 636.049072,247.248779 
	C636.087036,250.460220 636.624146,253.808014 635.908813,256.853058 
	C634.811218,261.525330 637.360962,265.780212 642.075806,265.752808 
	C644.800903,265.736969 647.528625,265.459167 650.248718,265.533264 
	C651.958557,265.579865 653.659058,266.316681 655.359436,266.299957 
	C661.976929,266.234863 668.593872,266.029755 675.208435,265.799744 
	C678.426819,265.687805 681.639221,265.405884 685.240173,265.176331 
	C683.989746,259.993744 682.485291,255.876968 682.083252,251.655212 
	C681.223328,242.625275 680.927979,233.541367 680.423218,224.478348 
	C680.389893,223.879639 680.540039,223.270706 680.604797,222.666550 
	C680.032349,222.666550 679.459839,222.666550 679.299194,222.666550 
	C683.616211,226.630569 687.929138,230.547195 692.171509,234.538895 
	C692.730835,235.065155 692.859436,236.021042 693.306885,236.699219 
	C695.376465,239.835785 697.153442,243.251205 699.663452,245.991257 
	C703.425293,250.097794 707.585449,253.871155 711.818848,257.503387 
	C714.871277,260.122314 718.042969,263.618256 721.648254,264.361450 
	C728.760193,265.827606 736.204468,265.771942 743.521973,266.124146 
	C750.012817,266.436615 756.523010,266.671753 763.015503,266.527008 
	C768.720886,266.399780 774.413452,265.698761 779.507446,265.298645 
	C779.507446,261.745178 779.507446,259.201202 779.507446,257.448975 
	C777.734558,254.083130 776.766418,250.569504 774.525818,248.327850 
	C769.287842,243.087585 763.321228,238.585678 757.863159,233.553223 
	C747.725891,224.206635 737.658813,214.780045 727.730530,205.212433 
	C723.354614,200.995438 719.307739,196.424072 715.290894,191.855835 
	C714.179016,190.591309 713.075928,188.767120 713.060059,187.188736 
	C712.999023,181.128296 713.333069,175.061188 713.608398,169.000610 
	C714.193420,156.125366 715.029297,143.257523 715.350037,130.376373 
	C715.468567,125.613731 718.052429,122.881462 721.229980,120.192642 
	C727.651306,114.758835 734.096985,109.353294 740.469666,103.862968 
	C743.120789,101.578873 745.942078,99.372261 748.103271,96.665207 
	C752.306519,91.400383 756.047180,85.768478 760.111389,80.388268 
	C760.783264,79.498886 762.418457,79.338333 763.093201,78.449707 
	C764.311646,76.845108 764.971680,74.821144 766.164124,73.191216 
	C770.079895,67.838852 774.452454,62.792389 778.032898,57.231384 
	C781.270691,52.202400 779.073425,48.051086 773.054382,47.086395 
	C770.548767,46.684818 767.923706,47.031101 765.352966,47.032436 
	C754.818665,47.037903 744.284424,47.041485 732.782532,47.016624 
M515.129700,115.153549 
	C514.403870,123.502502 513.680847,131.851715 512.951172,140.200333 
	C512.303467,147.610336 511.505585,155.010941 511.050568,162.432663 
	C510.782623,166.803619 511.056458,171.207626 511.081024,175.596786 
	C511.101440,179.240799 510.995392,182.890076 511.156647,186.527649 
	C511.412720,192.303726 511.906921,198.069260 512.163574,203.845337 
	C512.237671,205.511780 511.610992,207.211960 511.703705,208.874496 
	C512.052063,215.123581 512.575134,221.362808 513.013428,227.607086 
	C513.478149,234.227524 511.204315,241.119827 515.020020,247.409424 
	C515.915771,248.886017 517.081604,250.335892 517.475830,251.955643 
	C519.068054,258.497894 522.504822,262.985443 529.528137,264.125641 
	C530.959412,264.358002 532.261963,265.299896 533.687988,265.662201 
	C539.112610,267.040314 544.503845,268.837799 550.022949,269.467957 
	C554.701721,270.002167 559.551697,269.282196 564.305054,268.873993 
	C579.228088,267.592377 594.177673,266.660736 605.710632,254.863327 
	C609.537903,250.948318 613.740540,247.882996 612.999939,241.537491 
	C612.680115,238.797684 613.142822,235.917999 613.571106,233.151550 
	C614.122864,229.587616 615.632935,226.068741 615.606201,222.538956 
	C615.540344,213.820602 614.833679,205.107117 614.396057,196.616226 
	C612.997375,195.391022 611.486023,194.067169 609.328125,192.177002 
	C607.751404,192.177002 604.512451,191.232773 602.317261,192.346252 
	C594.320129,196.402679 586.721558,201.236511 578.870911,205.593597 
	C574.964783,207.761475 570.837219,209.530502 565.756775,211.989731 
	C565.602051,172.325287 567.659790,134.241714 568.454590,94.853256 
	C571.670227,96.451149 573.383423,97.048996 574.804626,98.058044 
	C578.504272,100.684822 581.714905,104.357567 585.772583,106.049522 
	C594.595093,109.728279 601.401001,116.630646 610.307312,120.234528 
	C614.464539,121.916702 617.867310,122.075043 621.792236,121.044281 
	C622.316528,118.087791 623.072815,115.332413 623.242554,112.541359 
	C623.563965,107.256645 622.967651,101.859215 623.790894,96.673409 
	C625.673035,84.816330 625.187073,73.483360 619.173706,62.753929 
	C613.758057,53.090900 605.827759,46.176987 595.487244,42.686543 
	C589.305237,40.599800 582.585083,39.533936 576.049255,39.224144 
	C568.994263,38.889744 561.842773,40.593266 554.787659,40.259602 
	C547.878540,39.932838 543.188904,43.710690 537.706665,46.609650 
	C530.693542,50.318153 526.100037,56.924286 523.719116,63.026276 
	C519.331238,74.272102 517.785217,86.684013 515.616699,98.711281 
	C514.711182,103.733551 515.241272,109.014679 515.129700,115.153549 
M149.354187,217.984497 
	C147.226395,218.022949 145.081223,218.250565 142.974701,218.057205 
	C139.470779,217.735596 136.003799,216.996246 132.498642,216.707245 
	C128.944000,216.414139 125.362244,216.441391 121.791794,216.350647 
	C117.974525,216.253647 114.156906,216.136246 110.338882,216.110626 
	C103.644966,216.065720 96.916954,215.690964 90.272240,216.260086 
	C87.422752,216.504120 84.198860,218.203690 82.112457,220.235352 
	C78.516846,223.736664 75.695412,228.029221 72.507103,231.955612 
	C71.840179,232.776932 70.774048,233.324432 70.259438,234.211349 
	C64.696075,243.799820 59.106571,253.376343 53.780041,263.096313 
	C52.709938,265.049072 52.715561,267.591339 52.225197,269.861786 
	C54.460682,270.275696 56.705879,271.086639 58.929905,271.032227 
	C66.956535,270.835754 74.972969,270.247986 82.999207,270.002533 
	C89.194603,269.813080 95.400192,269.971680 101.597977,269.831268 
	C102.617737,269.808167 104.090820,269.328339 104.553139,268.570679 
	C107.081070,264.427979 109.080490,259.941498 111.818413,255.955627 
	C113.707504,253.205490 116.117134,249.884735 118.982864,248.965057 
	C122.690804,247.775101 126.194527,250.160202 127.926849,254.135361 
	C128.901459,256.371765 129.695358,258.760986 131.071716,260.731354 
	C133.280746,263.893768 135.348892,267.864929 138.505081,269.462799 
	C141.907288,271.185211 146.497940,270.951752 150.560715,270.895111 
	C158.670776,270.782104 166.778290,270.269745 174.877548,269.770966 
	C176.564682,269.667084 179.534683,269.092285 179.629532,268.414764 
	C179.918243,266.352417 179.603516,263.847595 178.592560,262.034180 
	C176.336456,257.987335 173.409744,254.321564 170.945679,250.382050 
	C164.213242,239.618210 158.493958,228.186401 149.354187,217.984497 
z"/>
<path fill="#6E2799" opacity="1.000000" stroke="none" 
	d="
M120.834076,207.954559 
	C116.582611,208.166168 112.855309,208.495148 109.133652,208.440445 
	C103.090225,208.351608 97.047813,208.059570 91.012146,207.724182 
	C90.134117,207.675415 89.013000,207.129623 88.485847,206.443756 
	C85.485535,202.540054 82.669205,198.495758 79.720093,194.551758 
	C72.160904,184.442535 64.568787,174.357925 56.981430,164.269775 
	C54.009415,160.318192 50.912231,156.452438 48.161152,152.353561 
	C47.818390,151.842865 49.040310,149.348953 49.902332,149.114090 
	C55.488323,147.592178 60.717400,145.327637 67.104477,146.736557 
	C73.138817,148.067673 79.697365,147.022415 85.888878,147.022415 
	C86.398308,140.367981 86.747444,134.017426 87.398712,127.698006 
	C88.519714,116.820724 88.967842,105.766701 91.381668,95.170296 
	C92.832222,88.802544 93.242599,80.956192 100.455940,77.065575 
	C100.712837,76.927017 100.891273,76.561714 101.012001,76.263863 
	C103.978722,68.945038 109.778542,63.705818 116.092072,60.033718 
	C125.243813,54.710857 134.670181,49.334934 146.170685,49.883934 
	C152.029831,50.163635 157.957230,48.546162 163.878082,48.146847 
	C168.761124,47.817524 173.684250,48.128963 178.581070,47.937756 
	C180.957352,47.844975 183.317184,47.269325 185.676727,46.866928 
	C186.080826,46.798008 186.465958,46.301945 186.826141,46.338188 
	C193.797134,47.039639 200.763107,48.389957 207.730057,48.389523 
	C217.789108,48.388893 225.335327,54.164406 233.918808,57.827576 
	C242.950058,61.681847 246.131927,69.237740 248.584610,77.193275 
	C250.382416,83.024681 250.478226,89.425629 250.983078,95.601311 
	C251.971100,107.687286 252.670547,119.796608 253.590149,131.888596 
	C253.829575,135.036850 254.161331,138.236633 255.021881,141.249588 
	C255.354141,142.412888 257.249664,143.877045 258.474152,143.916199 
	C266.106415,144.160294 273.750397,144.039276 282.144073,144.039276 
	C282.144073,139.313583 282.270691,133.828644 282.112823,128.351898 
	C281.903015,121.071411 281.299652,113.800201 281.177399,106.519768 
	C281.015167,96.859268 281.229492,87.192825 281.115814,77.530891 
	C281.083466,74.781715 280.661163,71.999680 280.091034,69.301735 
	C278.725891,62.841511 282.566040,57.870361 285.708618,53.367813 
	C287.439545,50.887779 292.428864,50.434994 296.071442,49.604774 
	C299.803711,48.754128 303.427307,45.689911 307.612610,48.675083 
	C308.269806,49.143837 309.831146,48.494522 310.922363,48.180965 
	C318.100861,46.118275 325.285278,46.663219 332.529175,47.837223 
	C337.309326,48.611938 342.146332,49.428043 346.964020,49.467129 
	C351.615204,49.504852 353.132996,52.599285 353.396759,55.851677 
	C353.817596,61.041294 353.201233,66.321274 352.935944,71.558609 
	C352.641754,77.366051 352.116882,83.164421 351.936951,88.974312 
	C351.758179,94.747238 351.754272,100.533234 351.917389,106.306602 
	C352.040070,110.648697 352.661743,114.974922 352.851807,119.317383 
	C353.032532,123.446129 352.825897,127.591896 353.008972,131.720459 
	C353.139465,134.662720 353.737427,137.582092 353.928558,140.524551 
	C354.056549,142.495026 353.749512,144.489792 353.788300,146.470718 
	C353.966827,155.587524 354.331635,164.702774 354.368774,173.819641 
	C354.398071,181.010529 353.779297,188.208862 353.937012,195.393143 
	C354.113647,203.439545 355.088348,211.468872 355.250244,219.514999 
	C355.381775,226.051498 354.867889,232.603821 354.556915,239.145172 
	C354.393372,242.585678 354.030121,246.016235 353.795166,249.453903 
	C353.502441,253.736618 354.052734,258.305237 352.680023,262.201050 
	C351.843964,264.573853 348.287781,266.858459 345.563080,267.484924 
	C341.783051,268.353943 337.635223,267.544434 333.647064,267.603119 
	C324.735870,267.734161 315.826782,268.042755 306.915436,268.118439 
	C298.977814,268.185883 291.038330,268.037292 282.462585,267.979797 
	C282.462585,246.229431 282.462585,225.822922 282.462585,205.474106 
	C274.769714,205.474106 267.747162,205.327927 260.745361,205.643173 
	C259.776031,205.686813 258.200653,207.969025 258.121613,209.287796 
	C257.827423,214.196518 258.133240,219.137970 258.010284,224.062057 
	C257.969971,225.676529 256.934937,227.290298 256.997131,228.879242 
	C257.353241,237.975220 258.341095,247.070450 258.199615,256.151672 
	C258.130219,260.606049 256.086945,265.029663 254.972305,269.330933 
	C252.708084,269.161713 250.811920,268.905518 248.914688,268.897217 
	C238.233368,268.850555 227.550262,268.753357 216.870895,268.900208 
	C211.086594,268.979736 205.311890,269.670135 199.526657,269.792267 
	C193.606750,269.917236 192.039551,267.002625 192.645767,261.118439 
	C193.224533,255.500977 192.998901,249.611481 191.956207,244.061508 
	C190.478607,236.196732 191.105652,228.410980 191.007736,220.559708 
	C190.836151,206.800400 190.159393,193.043686 189.484268,179.296204 
	C189.215164,173.816223 186.481033,167.594498 188.296524,163.092636 
	C190.582611,157.423859 190.099457,151.952927 190.505341,146.508438 
	C190.872467,141.583420 189.095963,136.501282 188.288589,131.484589 
	C188.003021,129.710175 187.762283,127.927505 187.545914,126.143158 
	C187.039032,121.963097 186.413223,117.790543 186.103317,113.595169 
	C185.656601,107.547394 181.126724,104.667511 175.039734,103.410301 
	C166.394104,101.624634 159.691437,104.537811 152.880142,108.855644 
	C146.827011,112.692848 144.092484,118.188789 143.528824,125.149231 
	C143.377182,127.022034 142.325089,128.815323 141.739975,130.662125 
	C141.398651,131.739471 140.950943,132.844498 140.919800,133.947495 
	C140.816620,137.600433 140.880844,141.258118 140.880844,145.709656 
	C150.332016,145.709656 159.469620,145.686646 168.606979,145.723145 
	C171.493210,145.734665 174.459976,145.513031 177.246857,146.089462 
	C182.200943,147.114166 182.552017,148.879623 179.731598,152.883148 
	C176.198334,157.898529 173.085709,163.208099 169.684540,168.319504 
	C167.804428,171.144989 165.609100,173.760468 163.723404,176.582565 
	C158.008606,185.135315 152.323334,193.708862 146.735352,202.344711 
	C144.371124,205.998489 141.928986,208.624359 136.837448,208.014816 
	C131.746918,207.405411 126.525063,207.892960 120.834076,207.954559 
z"/>
<path fill="#6E2799" opacity="1.000000" stroke="none" 
	d="
M371.046417,237.704041 
	C370.913879,231.706848 370.451385,226.178741 370.772369,220.696503 
	C371.111633,214.900879 372.354645,209.163757 372.899017,203.372513 
	C373.240295,199.742310 373.844177,195.824539 372.880859,192.449493 
	C370.922882,185.589767 372.667603,178.820557 372.245453,172.036743 
	C371.847443,165.640961 371.340088,159.225113 371.473816,152.830505 
	C371.613007,146.174072 372.507355,139.535736 372.987061,132.883408 
	C373.424561,126.816681 373.640564,120.732643 374.152679,114.673012 
	C374.701935,108.173805 374.916870,101.569145 376.315002,95.239639 
	C377.845520,88.310654 380.457092,81.607307 382.785706,74.870674 
	C386.800049,63.257141 394.913544,56.023720 406.741608,52.817867 
	C413.144592,51.082424 419.411774,48.304905 425.912445,47.611076 
	C433.646393,46.785622 441.397949,45.470490 449.519653,48.219833 
	C453.011841,49.402008 457.987640,48.654274 461.925751,50.317390 
	C471.009125,54.153393 481.388885,55.561832 488.584595,62.969875 
	C490.889526,65.342773 491.980011,69.304878 492.684662,72.733368 
	C493.969147,78.982925 494.703583,85.361000 495.369293,91.716682 
	C495.790070,95.734001 495.270050,99.870483 495.890625,103.841209 
	C496.737030,109.256569 498.523560,114.522331 499.425537,119.932510 
	C500.164551,124.365250 500.304779,128.910309 500.519287,133.414688 
	C500.764221,138.558197 500.644958,143.721054 500.957031,148.858917 
	C501.480011,157.469269 502.500580,166.056961 502.792358,174.671783 
	C503.116333,184.238983 502.853058,193.825897 502.855438,203.404221 
	C502.858093,213.984848 502.885071,224.565475 502.876801,235.146088 
	C502.870728,242.881226 503.032135,250.627396 502.619781,258.341980 
	C502.538391,259.864563 500.359924,262.225616 498.831177,262.513275 
	C496.039856,263.038574 493.008179,262.092072 490.082184,262.134216 
	C482.334198,262.245819 474.589783,262.586456 466.842499,262.775696 
	C463.700256,262.852448 460.524750,263.036591 457.418213,262.689728 
	C454.361847,262.348480 450.003906,255.595673 451.065033,252.739899 
	C453.646576,245.792679 451.694427,238.725952 451.989410,231.731033 
	C452.224335,226.160736 452.202179,220.552399 451.838348,214.990753 
	C451.353271,207.574707 450.711426,200.144455 449.599915,192.801590 
	C448.704010,186.883133 447.424316,180.948975 445.550537,175.274185 
	C443.851685,170.129105 441.357971,165.195312 438.752380,160.420685 
	C437.271820,157.707611 433.061554,158.452759 431.577789,161.896835 
	C429.647369,166.377518 428.410736,171.157608 426.885132,175.811996 
	C426.107574,178.184265 425.755341,180.803711 424.511902,182.896057 
	C420.121429,190.283859 424.102020,198.534225 421.925873,205.953873 
	C419.588531,213.923279 422.695984,221.893143 420.607849,229.964188 
	C419.189972,235.444778 420.526337,241.677582 420.873932,247.559631 
	C421.065918,250.808167 422.268463,254.056870 422.081848,257.250946 
	C421.897278,260.410767 416.138123,263.929840 412.555145,263.869629 
	C402.157471,263.695007 391.758728,263.580719 381.361755,263.373962 
	C377.738098,263.301910 374.118439,263.028900 371.061035,262.875885 
	C371.061035,254.476868 371.061035,246.335083 371.046417,237.704041 
M426.879059,117.922432 
	C428.780029,118.583191 430.638550,119.587677 432.591339,119.829041 
	C436.047821,120.256256 439.711700,119.643700 443.017944,120.505432 
	C448.633728,121.969124 453.961304,120.781242 455.754059,115.683060 
	C458.142639,108.890465 460.967407,102.566338 465.493195,96.877533 
	C467.629639,94.192024 465.665924,90.841690 462.369415,91.012505 
	C455.605133,91.363029 448.861847,92.101082 442.103210,92.586411 
	C439.293427,92.788185 436.466766,92.795616 433.647308,92.813728 
	C428.496552,92.846825 423.333801,92.615891 418.199158,92.905106 
	C415.473389,93.058640 412.796082,94.072624 410.713501,94.555290 
	C412.247314,98.407112 412.885040,101.683876 414.666534,104.126442 
	C418.150391,108.903183 422.272858,113.214188 426.879059,117.922432 
z"/>
<path fill="#6E2799" opacity="1.000000" stroke="none" 
	d="
M733.266357,47.031193 
	C744.284424,47.041485 754.818665,47.037903 765.352966,47.032436 
	C767.923706,47.031101 770.548767,46.684818 773.054382,47.086395 
	C779.073425,48.051086 781.270691,52.202400 778.032898,57.231384 
	C774.452454,62.792389 770.079895,67.838852 766.164124,73.191216 
	C764.971680,74.821144 764.311646,76.845108 763.093201,78.449707 
	C762.418457,79.338333 760.783264,79.498886 760.111389,80.388268 
	C756.047180,85.768478 752.306519,91.400383 748.103271,96.665207 
	C745.942078,99.372261 743.120789,101.578873 740.469666,103.862968 
	C734.096985,109.353294 727.651306,114.758835 721.229980,120.192642 
	C718.052429,122.881462 715.468567,125.613731 715.350037,130.376373 
	C715.029297,143.257523 714.193420,156.125366 713.608398,169.000610 
	C713.333069,175.061188 712.999023,181.128296 713.060059,187.188736 
	C713.075928,188.767120 714.179016,190.591309 715.290894,191.855835 
	C719.307739,196.424072 723.354614,200.995438 727.730530,205.212433 
	C737.658813,214.780045 747.725891,224.206635 757.863159,233.553223 
	C763.321228,238.585678 769.287842,243.087585 774.525818,248.327850 
	C776.766418,250.569504 777.734558,254.083130 779.507446,257.448975 
	C779.507446,259.201202 779.507446,261.745178 779.507446,265.298645 
	C774.413452,265.698761 768.720886,266.399780 763.015503,266.527008 
	C756.523010,266.671753 750.012817,266.436615 743.521973,266.124146 
	C736.204468,265.771942 728.760193,265.827606 721.648254,264.361450 
	C718.042969,263.618256 714.871277,260.122314 711.818848,257.503387 
	C707.585449,253.871155 703.425293,250.097794 699.663452,245.991257 
	C697.153442,243.251205 695.376465,239.835785 693.306885,236.699219 
	C692.859436,236.021042 692.730835,235.065155 692.171509,234.538895 
	C687.929138,230.547195 683.616211,226.630569 679.299194,222.666550 
	C679.459839,222.666550 680.032349,222.666550 680.604797,222.666550 
	C680.540039,223.270706 680.389893,223.879639 680.423218,224.478348 
	C680.927979,233.541367 681.223328,242.625275 682.083252,251.655212 
	C682.485291,255.876968 683.989746,259.993744 685.240173,265.176331 
	C681.639221,265.405884 678.426819,265.687805 675.208435,265.799744 
	C668.593872,266.029755 661.976929,266.234863 655.359436,266.299957 
	C653.659058,266.316681 651.958557,265.579865 650.248718,265.533264 
	C647.528625,265.459167 644.800903,265.736969 642.075806,265.752808 
	C637.360962,265.780212 634.811218,261.525330 635.908813,256.853058 
	C636.624146,253.808014 636.087036,250.460220 636.049072,247.248779 
	C635.994141,242.604614 635.833679,237.961380 635.808411,233.317261 
	C635.774780,227.151764 635.786682,220.985352 635.856750,214.820221 
	C635.915588,209.647293 636.013367,204.472656 636.225891,199.304199 
	C636.472412,193.307739 636.892029,187.318619 637.183167,181.323730 
	C637.489319,175.017181 637.994202,168.705200 637.937683,162.399857 
	C637.864075,154.204300 637.347107,146.011841 636.974792,137.820145 
	C636.642029,130.497726 637.261292,122.942886 635.631775,115.914589 
	C633.400940,106.292877 636.266418,96.769028 634.483643,87.177193 
	C633.321716,80.926140 634.563965,74.247070 634.522156,67.761086 
	C634.501038,64.478333 634.464661,61.084328 633.655884,57.941154 
	C631.970276,51.390961 633.289062,49.558746 639.699158,49.944847 
	C642.283569,50.100517 644.914001,49.189018 647.534302,49.106682 
	C656.152344,48.835896 664.776428,48.761318 673.395142,48.506226 
	C674.677185,48.468277 675.940125,47.856068 677.215881,47.524529 
	C683.720215,45.834248 689.041992,50.223236 688.979614,56.960262 
	C688.912781,64.179779 688.996704,71.407776 689.315369,78.618797 
	C689.395508,80.431953 690.624756,82.194328 691.666992,84.848732 
	C693.375000,82.408264 694.330261,80.499092 695.770203,79.082710 
	C701.242615,73.699806 706.857544,68.461105 712.446533,63.197449 
	C717.869202,58.090389 723.264343,52.950165 728.828613,48.001060 
	C729.727417,47.201618 731.443970,47.321621 733.266357,47.031193 
z"/>
<path fill="#6E2799" opacity="1.000000" stroke="none" 
	d="
M515.124146,114.665833 
	C515.241272,109.014679 514.711182,103.733551 515.616699,98.711281 
	C517.785217,86.684013 519.331238,74.272102 523.719116,63.026276 
	C526.100037,56.924286 530.693542,50.318153 537.706665,46.609650 
	C543.188904,43.710690 547.878540,39.932838 554.787659,40.259602 
	C561.842773,40.593266 568.994263,38.889744 576.049255,39.224144 
	C582.585083,39.533936 589.305237,40.599800 595.487244,42.686543 
	C605.827759,46.176987 613.758057,53.090900 619.173706,62.753929 
	C625.187073,73.483360 625.673035,84.816330 623.790894,96.673409 
	C622.967651,101.859215 623.563965,107.256645 623.242554,112.541359 
	C623.072815,115.332413 622.316528,118.087791 621.792236,121.044281 
	C617.867310,122.075043 614.464539,121.916702 610.307312,120.234528 
	C601.401001,116.630646 594.595093,109.728279 585.772583,106.049522 
	C581.714905,104.357567 578.504272,100.684822 574.804626,98.058044 
	C573.383423,97.048996 571.670227,96.451149 568.454590,94.853256 
	C567.659790,134.241714 565.602051,172.325287 565.756775,211.989731 
	C570.837219,209.530502 574.964783,207.761475 578.870911,205.593597 
	C586.721558,201.236511 594.320129,196.402679 602.317261,192.346252 
	C604.512451,191.232773 607.751404,192.177002 609.328125,192.177002 
	C611.486023,194.067169 612.997375,195.391022 614.396057,196.616226 
	C614.833679,205.107117 615.540344,213.820602 615.606201,222.538956 
	C615.632935,226.068741 614.122864,229.587616 613.571106,233.151550 
	C613.142822,235.917999 612.680115,238.797684 612.999939,241.537491 
	C613.740540,247.882996 609.537903,250.948318 605.710632,254.863327 
	C594.177673,266.660736 579.228088,267.592377 564.305054,268.873993 
	C559.551697,269.282196 554.701721,270.002167 550.022949,269.467957 
	C544.503845,268.837799 539.112610,267.040314 533.687988,265.662201 
	C532.261963,265.299896 530.959412,264.358002 529.528137,264.125641 
	C522.504822,262.985443 519.068054,258.497894 517.475830,251.955643 
	C517.081604,250.335892 515.915771,248.886017 515.020020,247.409424 
	C511.204315,241.119827 513.478149,234.227524 513.013428,227.607086 
	C512.575134,221.362808 512.052063,215.123581 511.703705,208.874496 
	C511.610992,207.211960 512.237671,205.511780 512.163574,203.845337 
	C511.906921,198.069260 511.412720,192.303726 511.156647,186.527649 
	C510.995392,182.890076 511.101440,179.240799 511.081024,175.596786 
	C511.056458,171.207626 510.782623,166.803619 511.050568,162.432663 
	C511.505585,155.010941 512.303467,147.610336 512.951172,140.200333 
	C513.680847,131.851715 514.403870,123.502502 515.124146,114.665833 
z"/>
<path fill="#6D2997" opacity="1.000000" stroke="none" 
	d="
M149.622253,218.324905 
	C158.493958,228.186401 164.213242,239.618210 170.945679,250.382050 
	C173.409744,254.321564 176.336456,257.987335 178.592560,262.034180 
	C179.603516,263.847595 179.918243,266.352417 179.629532,268.414764 
	C179.534683,269.092285 176.564682,269.667084 174.877548,269.770966 
	C166.778290,270.269745 158.670776,270.782104 150.560715,270.895111 
	C146.497940,270.951752 141.907288,271.185211 138.505081,269.462799 
	C135.348892,267.864929 133.280746,263.893768 131.071716,260.731354 
	C129.695358,258.760986 128.901459,256.371765 127.926849,254.135361 
	C126.194527,250.160202 122.690804,247.775101 118.982864,248.965057 
	C116.117134,249.884735 113.707504,253.205490 111.818413,255.955627 
	C109.080490,259.941498 107.081070,264.427979 104.553139,268.570679 
	C104.090820,269.328339 102.617737,269.808167 101.597977,269.831268 
	C95.400192,269.971680 89.194603,269.813080 82.999207,270.002533 
	C74.972969,270.247986 66.956535,270.835754 58.929905,271.032227 
	C56.705879,271.086639 54.460682,270.275696 52.225197,269.861786 
	C52.715561,267.591339 52.709938,265.049072 53.780041,263.096313 
	C59.106571,253.376343 64.696075,243.799820 70.259438,234.211349 
	C70.774048,233.324432 71.840179,232.776932 72.507103,231.955612 
	C75.695412,228.029221 78.516846,223.736664 82.112457,220.235352 
	C84.198860,218.203690 87.422752,216.504120 90.272240,216.260086 
	C96.916954,215.690964 103.644966,216.065720 110.338882,216.110626 
	C114.156906,216.136246 117.974525,216.253647 121.791794,216.350647 
	C125.362244,216.441391 128.944000,216.414139 132.498642,216.707245 
	C136.003799,216.996246 139.470779,217.735596 142.974701,218.057205 
	C145.081223,218.250565 147.226395,218.022949 149.622253,218.324905 
z"/>
<path fill="#151515" opacity="1.000000" stroke="none" 
	d="
M426.505005,117.820213 
	C422.272858,113.214188 418.150391,108.903183 414.666534,104.126442 
	C412.885040,101.683876 412.247314,98.407112 410.713501,94.555290 
	C412.796082,94.072624 415.473389,93.058640 418.199158,92.905106 
	C423.333801,92.615891 428.496552,92.846825 433.647308,92.813728 
	C436.466766,92.795616 439.293427,92.788185 442.103210,92.586411 
	C448.861847,92.101082 455.605133,91.363029 462.369415,91.012505 
	C465.665924,90.841690 467.629639,94.192024 465.493195,96.877533 
	C460.967407,102.566338 458.142639,108.890465 455.754059,115.683060 
	C453.961304,120.781242 448.633728,121.969124 443.017944,120.505432 
	C439.711700,119.643700 436.047821,120.256256 432.591339,119.829041 
	C430.638550,119.587677 428.780029,118.583191 426.505005,117.820213 
z"/>
</svg>