<svg xmlns="http://www.w3.org/2000/svg" width="812" height="307" viewBox="0 0 812 307">
<g>
<path d="M 230.54 268.00 C217.75,268.00 204.63,268.28 201.37,268.62 C196.71,269.11 195.17,268.91 194.17,267.70 C192.49,265.68 191.06,243.20 190.97,217.50 C190.94,206.50 190.50,189.85 190.00,180.50 C189.38,168.92 189.45,160.10 190.20,152.83 C191.19,143.29 191.09,140.94 189.23,130.83 C188.08,124.60 186.86,117.40 186.52,114.82 C185.18,104.76 178.91,100.34 167.41,101.36 C160.26,101.99 150.45,107.24 146.33,112.63 C142.45,117.72 140.00,126.94 140.00,136.46 L 140.00 144.74 L 143.75 145.36 C145.81,145.70 154.56,145.98 163.19,145.99 C173.39,146.00 179.12,146.38 179.55,147.09 C180.34,148.35 175.75,157.36 172.47,161.00 C171.23,162.38 168.60,165.98 166.63,169.00 C164.67,172.02 161.09,177.04 158.68,180.13 C156.28,183.23 152.47,189.11 150.23,193.20 C147.99,197.28 144.82,202.06 143.18,203.81 L 140.20 207.00 L 118.74 207.00 C90.43,207.00 88.80,206.76 86.18,202.13 C85.04,200.13 81.80,195.80 78.96,192.50 C76.12,189.20 71.31,182.68 68.26,178.00 C65.22,173.32 60.88,167.44 58.61,164.92 C53.08,158.76 48.84,150.88 50.02,148.97 C50.75,147.79 54.42,147.44 68.82,147.17 L 86.71 146.84 L 87.43 128.79 C88.24,108.17 89.93,96.11 93.13,88.08 C95.86,81.21 105.79,67.49 110.79,63.67 C116.53,59.29 127.07,53.35 131.50,52.00 C138.06,50.01 151.98,48.96 179.57,48.38 C208.33,47.78 212.95,48.25 224.23,52.96 C235.20,57.55 240.89,62.28 244.72,70.00 C248.28,77.18 248.92,81.83 250.99,115.00 C252.36,137.04 253.76,145.35 255.94,144.35 C258.72,143.08 276.11,142.71 277.30,143.90 C277.91,144.51 279.20,145.00 280.19,145.00 C281.88,145.00 281.96,142.68 281.74,101.56 L 281.50 58.13 L 284.76 54.75 C289.09,50.27 297.39,48.27 315.08,47.45 C332.07,46.65 347.31,48.31 350.28,51.28 C352.14,53.14 352.22,54.01 351.46,63.89 C350.52,76.11 350.67,97.02 352.10,150.50 C353.41,199.59 353.43,245.53 352.16,254.90 C351.60,258.96 351.46,261.58 350.14,263.28 C347.56,266.59 340.49,266.42 317.15,266.74 C296.23,267.04 286.55,266.83 285.09,266.05 C283.04,264.95 283.00,264.34 283.00,234.53 L 283.00 204.12 L 271.75 203.81 C270.11,203.76 268.65,203.69 267.34,203.62 C263.02,203.41 260.37,203.27 258.73,204.49 C256.12,206.44 256.05,211.81 255.88,225.74 C255.85,228.39 255.81,231.36 255.76,234.67 C255.47,251.08 254.91,265.29 254.51,266.25 C253.85,267.85 251.74,268.00 230.54,268.00 ZM 417.51 259.92 C416.19,261.24 412.37,261.55 394.19,261.80 C382.22,261.97 372.22,261.89 371.96,261.62 C371.69,261.36 371.61,248.17 371.78,232.32 C371.95,216.47 372.21,185.50 372.38,163.50 C372.68,121.94 373.64,107.07 377.00,91.99 C382.69,66.47 391.73,55.48 410.23,51.58 C413.68,50.86 418.75,49.48 421.50,48.53 C425.78,47.04 428.64,46.89 441.48,47.48 C449.72,47.86 458.05,48.76 459.98,49.48 C461.92,50.20 467.33,52.19 472.00,53.89 C476.67,55.60 481.62,57.83 482.99,58.85 C488.47,62.92 491.75,74.64 493.97,98.00 C494.42,102.68 495.46,110.55 496.29,115.50 C499.79,136.37 502.05,183.11 501.44,222.00 C501.22,236.02 501.06,250.31 501.07,253.75 L 501.11 260.00 L 488.80 260.10 C482.04,260.16 472.02,260.49 466.55,260.85 C465.46,260.92 464.46,261.00 463.53,261.08 C459.65,261.39 457.14,261.59 455.48,260.50 C452.04,258.21 452.36,250.26 451.93,225.84 L 451.36 193.50 L 448.23 183.11 C444.63,171.21 438.77,158.23 436.62,157.41 C433.07,156.05 429.17,160.88 425.30,171.40 C421.22,182.49 419.99,195.30 419.46,232.42 C419.14,254.33 418.84,258.59 417.51,259.92 ZM 682.15 263.25 C681.30,264.10 667.44,265.11 666.71,264.37 C666.53,264.20 659.88,263.83 651.94,263.57 C644.00,263.31 637.12,263.07 636.66,263.05 C635.85,263.00 636.31,215.74 637.59,166.47 C638.06,148.03 637.82,139.75 636.34,124.97 C635.22,113.73 634.42,96.90 634.30,82.00 C634.19,68.53 633.96,55.94 633.80,54.03 C633.51,50.69 633.66,50.53 637.50,49.84 C639.70,49.44 648.25,49.09 656.51,49.06 C664.76,49.03 672.96,48.58 674.74,48.08 C678.28,47.06 684.11,48.22 685.82,50.28 C686.39,50.97 687.13,57.15 687.48,64.01 C688.08,75.93 689.55,85.01 690.88,84.99 C691.22,84.98 692.41,83.39 693.53,81.44 C694.65,79.49 702.97,70.95 712.03,62.47 L 728.50 47.04 L 739.50 46.97 C745.55,46.93 756.00,46.80 762.71,46.70 C776.94,46.47 778.74,47.26 777.60,53.30 C776.86,57.25 775.66,58.92 760.50,77.02 C754.45,84.25 747.65,92.49 745.38,95.33 C743.12,98.17 735.25,105.94 727.89,112.58 C716.20,123.13 714.42,125.16 713.78,128.58 C712.84,133.65 711.36,175.58 711.83,183.86 L 712.19 190.23 L 723.84 202.24 C730.26,208.85 741.35,219.34 748.50,225.55 C762.48,237.69 774.05,249.16 775.87,252.68 C776.49,253.89 777.00,256.92 777.00,259.43 L 777.00 264.00 L 722.22 264.00 L 716.36 259.67 C711.12,255.79 697.70,241.88 693.94,236.41 C691.49,232.86 679.07,219.60 678.62,220.06 C677.86,220.85 679.88,244.28 681.49,253.42 C682.45,258.82 682.71,262.69 682.15,263.25 ZM 569.77 267.03 C553.45,268.91 539.32,267.15 527.69,261.79 L 520.71 258.57 L 516.99 250.49 L 513.28 242.41 L 512.58 220.95 C511.31,181.98 511.14,161.64 512.00,150.00 C512.46,143.68 513.37,130.18 514.01,120.00 C515.28,100.01 519.90,71.43 523.02,64.28 C526.34,56.67 531.01,51.05 538.22,45.99 C544.47,41.59 545.92,41.00 550.41,40.99 C553.21,40.99 558.02,40.58 561.09,40.07 C564.58,39.50 569.30,39.52 573.59,40.13 C577.39,40.66 583.88,41.36 588.00,41.66 C593.86,42.10 596.70,42.90 601.00,45.32 C607.62,49.05 615.09,56.29 617.80,61.61 C620.29,66.50 624.17,84.08 623.06,85.47 C622.60,86.03 622.04,93.25 621.80,101.50 C621.31,118.96 620.57,121.25 615.73,120.33 C610.82,119.39 604.31,115.84 588.38,105.41 C571.17,94.13 569.39,93.21 567.79,94.81 C567.07,95.53 566.54,100.32 566.40,107.24 C566.28,113.43 565.66,136.27 565.03,158.00 C564.39,179.73 564.16,200.73 564.51,204.67 L 565.16 211.84 L 569.83 209.66 C572.40,208.46 577.26,205.80 580.63,203.74 C584.00,201.68 587.19,200.00 587.70,200.00 C588.22,200.00 591.88,197.93 595.84,195.40 C603.71,190.36 605.37,190.24 610.41,194.31 C613.09,196.48 613.35,197.28 613.79,204.90 C614.05,209.43 613.68,217.27 612.96,222.32 C612.25,227.37 611.74,234.20 611.83,237.50 C612.01,244.42 611.25,246.05 604.61,252.99 C596.31,261.65 588.22,264.91 569.77,267.03 ZM 106.45 260.94 L 102.50 269.02 L 77.16 268.76 C63.22,268.62 51.59,268.14 51.32,267.69 C50.45,266.32 68.91,236.62 75.02,229.55 C78.21,225.87 81.34,221.59 81.98,220.04 C83.13,217.26 83.26,217.22 94.32,216.57 C104.99,215.94 147.21,217.39 148.92,218.45 C149.77,218.98 163.86,239.96 170.77,251.00 C176.24,259.73 179.55,266.79 178.61,267.72 C177.50,268.84 156.37,269.34 145.36,268.52 L 135.93 267.81 L 132.22 260.77 C130.17,256.90 127.22,252.22 125.65,250.37 C119.88,243.56 113.11,247.29 106.45,260.94 ZM 428.41 120.23 C429.01,120.64 434.26,120.98 440.08,120.98 C449.80,121.00 450.81,120.82 452.63,118.75 C455.77,115.19 466.30,93.22 465.66,91.56 C465.17,90.28 462.02,90.14 443.29,90.58 C408.02,91.40 407.57,91.50 410.56,98.14 C412.26,101.91 425.46,118.25 428.41,120.23 Z" fill="rgb(109,38,152)"/>
<path d="M 0.00 153.50 L 0.00 0.00 L 406.00 0.00 L 812.00 0.00 L 812.00 153.50 L 812.00 307.00 L 406.00 307.00 L 0.00 307.00 L 0.00 153.50 ZM 106.45 260.94 C113.11,247.29 119.88,243.56 125.65,250.37 C127.22,252.22 130.17,256.90 132.22,260.77 L 135.93 267.81 L 145.36 268.52 C156.37,269.34 177.50,268.84 178.61,267.72 C179.55,266.79 176.24,259.73 170.77,251.00 C163.86,239.96 149.77,218.98 148.92,218.45 C147.21,217.39 104.99,215.94 94.32,216.57 C83.26,217.22 83.13,217.26 81.98,220.04 C81.34,221.59 78.21,225.87 75.02,229.55 C68.91,236.62 50.45,266.32 51.32,267.69 C51.59,268.14 63.22,268.62 77.16,268.76 L 102.50 269.02 L 106.45 260.94 ZM 230.54 268.00 C251.74,268.00 253.85,267.85 254.51,266.25 C254.91,265.29 255.47,251.08 255.76,234.67 C256.37,199.75 254.52,203.33 271.75,203.81 L 283.00 204.12 L 283.00 234.53 C283.00,264.34 283.04,264.95 285.09,266.05 C286.55,266.83 296.23,267.04 317.15,266.74 C352.45,266.25 350.52,266.90 352.16,254.90 C353.43,245.53 353.41,199.59 352.10,150.50 C350.67,97.02 350.52,76.11 351.46,63.89 C352.22,54.01 352.14,53.14 350.28,51.28 C347.31,48.31 332.07,46.65 315.08,47.45 C297.39,48.27 289.09,50.27 284.76,54.75 L 281.50 58.13 L 281.74 101.56 C281.96,142.68 281.88,145.00 280.19,145.00 C279.20,145.00 277.91,144.51 277.30,143.90 C276.11,142.71 258.72,143.08 255.94,144.35 C253.76,145.35 252.36,137.04 250.99,115.00 C248.92,81.83 248.28,77.18 244.72,70.00 C240.89,62.28 235.20,57.55 224.23,52.96 C212.95,48.25 208.33,47.78 179.57,48.38 C151.98,48.96 138.06,50.01 131.50,52.00 C127.07,53.35 116.53,59.29 110.79,63.67 C105.79,67.49 95.86,81.21 93.13,88.08 C89.93,96.11 88.24,108.17 87.43,128.79 L 86.71 146.84 L 68.82 147.17 C54.42,147.44 50.75,147.79 50.02,148.97 C48.84,150.88 53.08,158.76 58.61,164.92 C60.88,167.44 65.22,173.32 68.26,178.00 C71.31,182.68 76.12,189.20 78.96,192.50 C81.80,195.80 85.04,200.13 86.18,202.13 C88.80,206.76 90.43,207.00 118.74,207.00 L 140.20 207.00 L 143.18 203.81 C144.82,202.06 147.99,197.28 150.23,193.20 C152.47,189.11 156.28,183.23 158.68,180.13 C161.09,177.04 164.67,172.02 166.63,169.00 C168.60,165.98 171.23,162.38 172.47,161.00 C175.75,157.36 180.34,148.35 179.55,147.09 C179.12,146.38 173.39,146.00 163.19,145.99 C154.56,145.98 145.81,145.70 143.75,145.36 L 140.00 144.74 L 140.00 136.46 C140.00,126.94 142.45,117.72 146.33,112.63 C150.45,107.24 160.26,101.99 167.41,101.36 C178.91,100.34 185.18,104.76 186.52,114.82 C186.86,117.40 188.08,124.60 189.23,130.83 C191.09,140.94 191.19,143.29 190.20,152.83 C189.45,160.10 189.38,168.92 190.00,180.50 C190.50,189.85 190.94,206.50 190.97,217.50 C191.06,243.20 192.49,265.68 194.17,267.70 C195.17,268.91 196.71,269.11 201.37,268.62 C204.63,268.28 217.75,268.00 230.54,268.00 ZM 569.77 267.03 C588.22,264.91 596.31,261.65 604.61,252.99 C611.25,246.05 612.01,244.42 611.83,237.50 C611.74,234.20 612.25,227.37 612.96,222.32 C613.68,217.27 614.05,209.43 613.79,204.90 C613.35,197.28 613.09,196.48 610.41,194.31 C605.37,190.24 603.71,190.36 595.84,195.40 C591.88,197.93 588.22,200.00 587.70,200.00 C587.19,200.00 584.00,201.68 580.63,203.74 C577.26,205.80 572.40,208.46 569.83,209.66 L 565.16 211.84 L 564.51 204.67 C564.16,200.73 564.39,179.73 565.03,158.00 C565.66,136.27 566.28,113.43 566.40,107.24 C566.54,100.32 567.07,95.53 567.79,94.81 C569.39,93.21 571.17,94.13 588.38,105.41 C604.31,115.84 610.82,119.39 615.73,120.33 C620.57,121.25 621.31,118.96 621.80,101.50 C622.04,93.25 622.60,86.03 623.06,85.47 C624.17,84.08 620.29,66.50 617.80,61.61 C615.09,56.29 607.62,49.05 601.00,45.32 C596.70,42.90 593.86,42.10 588.00,41.66 C583.88,41.36 577.39,40.66 573.59,40.13 C569.30,39.52 564.58,39.50 561.09,40.07 C558.02,40.58 553.21,40.99 550.41,40.99 C545.92,41.00 544.47,41.59 538.22,45.99 C531.01,51.05 526.34,56.67 523.02,64.28 C519.90,71.43 515.28,100.01 514.01,120.00 C513.37,130.18 512.46,143.68 512.00,150.00 C511.14,161.64 511.31,181.98 512.58,220.95 L 513.28 242.41 L 516.99 250.49 L 520.71 258.57 L 527.69 261.79 C539.32,267.15 553.45,268.91 569.77,267.03 ZM 682.15 263.25 C682.71,262.69 682.45,258.82 681.49,253.42 C679.88,244.28 677.86,220.85 678.62,220.06 C679.07,219.60 691.49,232.86 693.94,236.41 C697.70,241.88 711.12,255.79 716.36,259.67 L 722.22 264.00 L 749.61 264.00 L 777.00 264.00 L 777.00 259.43 C777.00,256.92 776.49,253.89 775.87,252.68 C774.05,249.16 762.48,237.69 748.50,225.55 C741.35,219.34 730.26,208.85 723.84,202.24 L 712.19 190.23 L 711.83 183.86 C711.36,175.58 712.84,133.65 713.78,128.58 C714.42,125.16 716.20,123.13 727.89,112.58 C735.25,105.94 743.12,98.17 745.38,95.33 C747.65,92.49 754.45,84.25 760.50,77.02 C775.66,58.92 776.86,57.25 777.60,53.30 C778.74,47.26 776.94,46.47 762.71,46.70 C756.00,46.80 745.55,46.93 739.50,46.97 L 728.50 47.04 L 712.03 62.47 C702.97,70.95 694.65,79.49 693.53,81.44 C692.41,83.39 691.22,84.98 690.88,84.99 C689.55,85.01 688.08,75.93 687.48,64.01 C687.13,57.15 686.39,50.97 685.82,50.28 C684.11,48.22 678.28,47.06 674.74,48.08 C672.96,48.58 664.76,49.03 656.51,49.06 C648.25,49.09 639.70,49.44 637.50,49.84 C633.66,50.53 633.51,50.69 633.80,54.03 C633.96,55.94 634.19,68.53 634.30,82.00 C634.42,96.90 635.22,113.73 636.34,124.97 C637.82,139.75 638.06,148.03 637.59,166.47 C636.31,215.74 635.85,263.00 636.66,263.05 C637.12,263.07 644.00,263.31 651.94,263.57 C659.88,263.83 666.53,264.20 666.71,264.37 C667.44,265.11 681.30,264.10 682.15,263.25 ZM 417.51 259.92 C418.84,258.59 419.14,254.33 419.46,232.42 C419.99,195.30 421.22,182.49 425.30,171.40 C429.17,160.88 433.07,156.05 436.62,157.41 C438.77,158.23 444.63,171.21 448.23,183.11 L 451.36 193.50 L 451.93 225.84 C452.62,264.76 451.40,261.84 466.55,260.85 C472.02,260.49 482.04,260.16 488.80,260.10 L 501.11 260.00 L 501.07 253.75 C501.06,250.31 501.22,236.02 501.44,222.00 C502.05,183.11 499.79,136.37 496.29,115.50 C495.46,110.55 494.42,102.68 493.97,98.00 C491.75,74.64 488.47,62.92 482.99,58.85 C481.62,57.83 476.67,55.60 472.00,53.89 C467.33,52.19 461.92,50.20 459.98,49.48 C458.05,48.76 449.72,47.86 441.48,47.48 C428.64,46.89 425.78,47.04 421.50,48.53 C418.75,49.48 413.68,50.86 410.23,51.58 C391.73,55.48 382.69,66.47 377.00,91.99 C373.64,107.07 372.68,121.94 372.38,163.50 C372.21,185.50 371.95,216.47 371.78,232.32 C371.61,248.17 371.69,261.36 371.96,261.62 C372.22,261.89 382.22,261.97 394.19,261.80 C412.37,261.55 416.19,261.24 417.51,259.92 ZM 428.41 120.23 C425.46,118.25 412.26,101.91 410.56,98.14 C407.57,91.50 408.02,91.40 443.29,90.58 C462.02,90.14 465.17,90.28 465.66,91.56 C466.30,93.22 455.77,115.19 452.63,118.75 C450.81,120.82 449.80,121.00 440.08,120.98 C434.26,120.98 429.01,120.64 428.41,120.23 Z" fill="rgb(254,254,254)"/>
</g>
</svg>